<svg height="512" viewBox="0 0 64 64" width="512" xmlns="http://www.w3.org/2000/svg"><g id="farm-wifi-smart_farm-network" data-name="farm-wifi-smart farm-network"><path d="m26 54v7h-12.97l1.65-7z" fill="#78b9eb"/><path d="m26 54h12v7h-12z" fill="#78b9eb"/><path d="m14.68 54-1.65 7h-10.03l1.75-7z" fill="#78b9eb"/><path d="m59.25 54h-9.47l-2.01-7h9.73z" fill="#78b9eb"/><path d="m49.78 54h-11.78v-7h9.77z" fill="#78b9eb"/><path d="m26 47v7h-11.32l1.64-7z" fill="#78b9eb"/><path d="m38 22v4l-16-5-16 5v-4l16-5z" fill="#78b9eb"/><path d="m17 6a3 3 0 0 1 0 6h-12a2 2 0 1 1 1.08-3.68 3 3 0 0 1 2.92-2.32 2.887 2.887 0 0 1 1.02.19c0-.06-.02-.13-.02-.19a3 3 0 0 1 6 0c0 .06-.02.13-.02.19a2.887 2.887 0 0 1 1.02-.19z" fill="#78b9eb"/><path d="m61 26.5c0 6.9-4.48 12.5-10 12.5s-10-5.6-10-12.5a13.893 13.893 0 0 1 3.44-9.41c.98-4.48 3.54-8.09 6.56-8.09s5.58 3.61 6.56 8.09a13.893 13.893 0 0 1 3.44 9.41z" fill="#78b9eb"/><g fill="#006df0"><path d="m58.47 46.76a1 1 0 0 0 -.97-.76h-5.5v-6.06c5.6-.63 10-6.41 10-13.44a15.08 15.08 0 0 0 -3.52-9.89c-1.2-5.16-4.19-8.61-7.48-8.61s-6.28 3.45-7.48 8.61a15.08 15.08 0 0 0 -3.52 9.89c0 7.03 4.4 12.81 10 13.44v6.06h-14v-19.58l1.7.53a1.047 1.047 0 0 0 .3.05 1.036 1.036 0 0 0 .59-.19 1 1 0 0 0 .41-.81v-4a.987.987 0 0 0 -.7-.95l-16-5a.883.883 0 0 0 -.6 0l-16 5a.987.987 0 0 0 -.7.95v4a.992.992 0 0 0 1.3.95l1.7-.53v19.58h-1.5a1 1 0 0 0 -.97.76l-3.5 14a1.022 1.022 0 0 0 .18.86 1 1 0 0 0 .79.38h58a1 1 0 0 0 .79-.38 1.022 1.022 0 0 0 .18-.86zm-51.47-22.12v-1.9l15-4.69 15 4.69v1.9l-14.7-4.59a.925.925 0 0 0 -.6 0zm5.24 35.36h-7.96l1.25-5h7.88zm-6.21-7 1.25-5h7.78l-1.18 5zm18.97 7h-10.71l1.18-5h9.53zm0-7h-9.06l1.17-5h7.89zm-15-7v-20.2l12-3.75 12 3.75v20.2zm27 14h-10v-5h10zm0-7h-10v-5h10zm5-26.5a13.043 13.043 0 0 1 3.17-8.74 1.02 1.02 0 0 0 .24-.46c.93-4.23 3.28-7.3 5.59-7.3s4.66 3.07 5.59 7.3a1.02 1.02 0 0 0 .24.46 13.043 13.043 0 0 1 3.17 8.74c0 5.91-3.51 10.79-8 11.42v-4.32l3.44-1.7-.88-1.8-2.56 1.27v-7.37h-2v2.28l-2.34-2.03-1.32 1.5 3.66 3.18v8.99c-4.49-.63-8-5.51-8-11.42zm-3 21.5h8.02l1.43 5h-9.45zm0 12v-5h10.03l1.43 5zm10.1-12h7.62l1.25 5h-7.44zm3.44 12-1.43-5h7.36l1.25 5z"/><path d="m9 49h2v2h-2z"/><path d="m20 57h2v2h-2z"/><path d="m33 57h2v2h-2z"/><path d="m52 50h2v2h-2z"/><path d="m15.637 34.636 1.414 1.414a7.01 7.01 0 0 1 9.9 0l1.414-1.414a9.01 9.01 0 0 0 -12.728 0z"/><path d="m18.466 37.464 1.414 1.414a3.072 3.072 0 0 1 4.242 0l1.414-1.414a5 5 0 0 0 -7.07 0z"/><circle cx="22" cy="41" r="1"/><path d="m12.808 31.808 1.414 1.414a11.014 11.014 0 0 1 15.556 0l1.414-1.414a13.013 13.013 0 0 0 -18.384 0z"/><path d="m5 13h12a4 4 0 1 0 -.126-8 4 4 0 0 0 -7.748 0 3.974 3.974 0 0 0 -3.612 2.045 2.941 2.941 0 0 0 -.514-.045 3 3 0 0 0 0 6zm0-4a.983.983 0 0 1 .541.163 1 1 0 0 0 1.518-.615 1.963 1.963 0 0 1 2.621-1.418 1 1 0 0 0 1.337-1.017c-.002-.021-.017-.092-.017-.113a2 2 0 0 1 4-.026c0 .021-.014.118-.016.139a1 1 0 0 0 1.336 1.017 1.97 1.97 0 0 1 .68-.13 2 2 0 0 1 0 4h-12a1 1 0 0 1 0-2z"/><path d="m30 16h9a3 3 0 0 0 .907-5.86 4 4 0 0 0 -7.393-1.1 3.03 3.03 0 0 0 -2.747.964 3 3 0 0 0 .233 5.996zm-.006-4 .141.018a.988.988 0 0 0 1-.5 1 1 0 0 1 1.407-.354 1 1 0 0 0 1.518-.615 2 2 0 0 1 3.94.451 1 1 0 0 0 1 1 1 1 0 0 1 0 2h-9a1 1 0 0 1 -.006-2z"/></g></g></svg>