<svg height="512" viewBox="0 0 64 64" width="512" xmlns="http://www.w3.org/2000/svg"><g id="warehouse-farm-sun-clouds-solar"><circle cx="14" cy="14" fill="#78b9eb" r="6"/><path d="m2 57h60v4h-60z" fill="#78b9eb"/><path d="m43 30-13 4.06v22.94h6v-14h14v14h6v-22.94zm6 9h-12v-3h12z" fill="#78b9eb"/><path d="m61 19a2.006 2.006 0 0 1 -2 2h-9a2 2 0 0 1 0-4 2.061 2.061 0 0 1 .26.03 2.007 2.007 0 0 1 1.74-1.03 1.986 1.986 0 0 1 1.08.32 3 3 0 0 1 5.92.68 2.006 2.006 0 0 1 2 2z" fill="#78b9eb"/><g fill="#006df0"><path d="m2 60h60v2h-60z"/><path d="m57 56v-20.58l1.7.53a1.047 1.047 0 0 0 .3.05 1.036 1.036 0 0 0 .59-.19 1 1 0 0 0 .41-.81v-4a.987.987 0 0 0 -.7-.95l-16-5a.883.883 0 0 0 -.6 0l-16 5a.987.987 0 0 0 -.7.95v4a.992.992 0 0 0 1.3.95l1.7-.53v20.58h-5v-2a1 1 0 0 0 -1-1h-1v-6.59l3.71-3.7-1.42-1.42-11 11 1.42 1.42 5.29-5.3v4.59h-2a1 1 0 0 0 -1 1v2h-4v-2a1 1 0 0 0 -1-1h-1v-6.59l3.71-3.7-1.42-1.42-11 11 1.42 1.42 5.29-5.3v4.59h-2a1 1 0 0 0 -1 1v2h-4v2h60v-2zm-46 0h-3v-1h3zm11 0h-3v-1h3zm6-22.36v-1.9l15-4.69 15 4.69v1.9l-14.7-4.59a.925.925 0 0 0 -.6 0zm13.59 16.36-4.59 4.59v-9.18zm-3.18-6h9.18l-4.59 4.59zm0 12 4.59-4.59 4.59 4.59zm10.59-1.41-4.59-4.59 4.59-4.59zm6 1.41h-4v-13a1 1 0 0 0 -1-1h-14a1 1 0 0 0 -1 1v13h-4v-21.2l12-3.75 12 3.75z"/><path d="m49 35h-12a1 1 0 0 0 -1 1v3a1 1 0 0 0 1 1h12a1 1 0 0 0 1-1v-3a1 1 0 0 0 -1-1zm-9 3h-2v-1h2zm4 0h-2v-1h2zm4 0h-2v-1h2z"/><path d="m14 21a7 7 0 1 0 -7-7 7.008 7.008 0 0 0 7 7zm0-12a5 5 0 1 1 -5 5 5.006 5.006 0 0 1 5-5z"/><path d="m13 2h2v3h-2z"/><path d="m5.576 5.075h2v3h-2z" transform="matrix(.707 -.707 .707 .707 -2.724 6.575)"/><path d="m2 13h3v2h-3z"/><path d="m5.075 20.425h3v2h-3z" transform="matrix(.707 -.707 .707 .707 -13.224 10.925)"/><path d="m13 23h2v3h-2z"/><path d="m20.425 19.924h2v3h-2z" transform="matrix(.707 -.707 .707 .707 -8.874 21.425)"/><path d="m23 13h3v2h-3z"/><path d="m19.924 5.576h3v2h-3z" transform="matrix(.707 -.707 .707 .707 1.626 17.075)"/><path d="m47.87 5a4 4 0 0 0 -7.74 0 4.028 4.028 0 0 0 -3.62 2.04 4.379 4.379 0 0 0 -.51-.04 3 3 0 0 0 0 6h12a4 4 0 1 0 -.13-8zm.13 6h-12a1 1 0 0 1 0-2 1.032 1.032 0 0 1 .54.16 1 1 0 0 0 1.52-.61 1.989 1.989 0 0 1 1.94-1.55 1.9 1.9 0 0 1 .68.13 1.018 1.018 0 0 0 .94-.14 1 1 0 0 0 .4-.86c0-.03-.02-.1-.02-.13a2 2 0 0 1 4-.03c0 .03-.02.13-.02.16a1 1 0 0 0 .4.86 1.022 1.022 0 0 0 .94.14 1.9 1.9 0 0 1 .68-.13 2 2 0 0 1 0 4z"/><path d="m49.767 16.009a3 3 0 0 0 .233 5.991h9a3 3 0 0 0 .907-5.86 4 4 0 0 0 -7.394-1.1 3.042 3.042 0 0 0 -2.746.969zm2.773 1.153a1 1 0 0 0 1.518-.614 2 2 0 0 1 3.942.452 1 1 0 0 0 1 1 1 1 0 0 1 0 2h-9a1 1 0 0 1 -.006-2l.141.018a1.013 1.013 0 0 0 1-.5 1 1 0 0 1 1.405-.356z"/></g></g></svg>