<svg height="512" viewBox="0 0 60 60" width="512" xmlns="http://www.w3.org/2000/svg"><g id="Page-1" fill="none" fill-rule="evenodd"><g id="022---Smart-Farm-House" fill-rule="nonzero"><path id="Shape" d="m59 9.72c.0985851 3.173466-1.4822266 6.1640881-4.16 7.87-1.1260448.6857023-1.8209254 1.9017433-1.84 3.22v1.19h-6v-1.19c-.0202573-1.323145-.7189685-2.543057-1.85-3.23-3.4141698-2.1810336-4.9502429-6.3744358-3.7527295-10.2447619 1.1975135-3.87032611 4.8334064-6.46347582 8.8827295-6.3352381 4.7318567.19714846 8.5228515 3.98814333 8.72 8.72z" fill="#e8edfc"/><path id="Shape" d="m50.28 1c-.6068229-.0171549-1.2138409.02639495-1.812.13 4.2164202.7391813 7.3501869 4.31313985 7.532 8.59.0985851 3.173466-1.4822266 6.1640881-4.16 7.87-1.1260448.6857023-1.8209254 1.9017433-1.84 3.22v1.19h3v-1.19c.0190746-1.3182567.7139552-2.5342977 1.84-3.22 2.6777734-1.7059119 4.2585851-4.696534 4.16-7.87-.1971485-4.73185667-3.9881433-8.52285154-8.72-8.72z" fill="#cad9fc"/><rect id="Rectangle-path" fill="#e8edfc" height="4" rx="1" width="8" x="46" y="22"/><path id="Shape" d="m53 26v1c-.0000001 1.6568542-1.3431458 2.9999999-3 2.9999999s-2.9999999-1.3431457-3-2.9999999v-1z" fill="#a4c2f7"/><path id="Shape" d="m48 35.4v11.6h-38v-11.6l11.65-10.1c.2209427-.1909039.3485576-.4680104.35-.76v-6.66l6.34-5.63c.3775063-.3316459.9424937-.3316459 1.32 0l6.34 5.63v6.66c.0014424.2919896.1290573.5690961.35.76z" fill="#e8edfc"/><path id="Shape" d="m36.35 25.3c-.2209427-.1909039-.3485576-.4680104-.35-.76v-6.66l-6.34-5.63c-.3775063-.3316459-.9424937-.3316459-1.32 0l-.84.75 5.5 4.88v6.66c.0014424.2919896.1290573.5690961.35.76l11.65 10.1v11.6h3v-11.6z" fill="#cad9fc"/><rect id="Rectangle-path" fill="#a4c2f7" height="5" rx="1" width="6" x="26" y="20"/><path id="Rectangle-path" d="m25 33h8v14h-8z" fill="#a4c2f7"/><path id="Shape" d="m25 47h-7v-7z" fill="#cad9fc"/><path id="Shape" d="m25 32.9999985v7.0000015l-6.68-6.73c.1837073-.1737904.427114-.2704372.68-.27z" fill="#e8edfc"/><path id="Shape" d="m39.69 33.27-6.69 6.73v-7h6c.2553476.002238.5009471.0983422.69.27z" fill="#e8edfc"/><path id="Shape" d="m40 40v7h-7z" fill="#cad9fc"/><path id="Shape" d="m40 34v6h-7l6.69-6.73c.1959775.1926456.3074747.4552035.31.73z" fill="#cad9fc"/><path id="Shape" d="m40 40-7 7v-7z" fill="#e8edfc"/><path id="Shape" d="m25 40h-7.0000345l.0000345-6c-.0023372-.2778373.1140945-.5434472.32-.73z" fill="#cad9fc"/><path id="Shape" d="m25 40v7l-7-7z" fill="#e8edfc"/><path id="Shape" d="m1 47h58v10c0 1.1045695-.8954305 2-2 2h-54c-1.1045695 0-2-.8954305-2-2z" fill="#e8edfc"/><path id="Shape" d="m56 47v12h1c1.1045695 0 2-.8954305 2-2v-10z" fill="#cad9fc"/><path id="Shape" d="m3 59h3c-1.1045695 0-2-.8954305-2-2v-10h-3v10c0 1.1045695.8954305 2 2 2z" fill="#fff"/><path id="Shape" d="m13 35.4 11.65-10.1c.2209427-.1909039.3485576-.4680104.35-.76v-6.66l5.5-4.88-.84-.746c-.3775063-.3316459-.9424937-.3316459-1.32 0l-6.34 5.626v6.66c-.0014424.2919896-.1290573.5690961-.35.76l-11.65 10.1v11.6h3z" fill="#fff"/><path id="Rectangle-path" d="m14.628 26.92h8v2h-8z" fill="#fff" transform="matrix(.756 -.655 .655 .756 -13.736 19.025)"/><g fill="#428dff"><path id="Shape" d="m18.647 28.92c-.3572656.0017863-.6883456-.187162-.8685254-.4956699s-.1820858-.6897057-.005-1c.1770858-.3102942.5062598-.5025438.8635254-.5043301h.01c.5522847 0 1 .4477153 1 1s-.4477153 1-1 1z"/><path id="Shape" d="m22 29c0 .5522847.4477153 1 1 1h12c.5522847 0 1-.4477153 1-1s-.4477153-1-1-1h-12c-.5522847 0-1 .4477153-1 1z"/><path id="Shape" d="m31 26c1.1045695 0 2-.8954305 2-2v-3c0-1.1045695-.8954305-2-2-2h-4c-1.1045695 0-2 .8954305-2 2v3c0 1.1045695.8954305 2 2 2zm-4-5h4v3h-4z"/><path id="Shape" d="m1 48h6.132l-6.964 10.445c-.1982824.297245-.22292459.6776931-.0646441.9980331.1582805.3203401.4754371.5319049.832.555s.6983617-.1457881.8966441-.4430331l7.703-11.555h4.965l-4.423 10.615c-.13754725.3297561-.08872335.707844.1280802.9918414.2168036.2839975.5686492.4307587.923.385.3543508-.0457586.6573725-.2770853.7949198-.6068414l4.744-11.385h5.052l-2.689 10.757c-.1341901.535714.1912929 1.0787826.727 1.213.0794196.0201607.1610618.03024.243.03.4583065-.0004704.8576317-.3124303.969-.757l2.812-11.243h4.219v11c0 .5522847.4477153 1 1 1s1-.4477153 1-1v-11h4.219l2.811 11.243c.1114591.4449311.5113206.7569879.97.757.0822727.0003241.1642562-.0097558.244-.03.5357071-.1342174.8611901-.677286.727-1.213l-2.69-10.757h5.052l4.744 11.385c.1375473.3297561.440569.5610828.7949198.6068414.3543508.0457587.7061964-.1010025.923-.385.2168035-.2839974.2656275-.6620853.1280802-.9918414l-4.423-10.615h4.965l7.7 11.555c.1982824.297245.5400812.4661282.8966441.4430331s.6737195-.2346599.832-.555c.1582805-.32034.1336383-.7007881-.0646441-.9980331l-6.961-10.445h6.132c.5522847 0 1-.4477153 1-1s-.4477153-1-1-1h-8v-8.41l1.345 1.165c.2679221.2473138.649216.3292006.9950565.2136989.3458405-.1155018.6014039-.4100826.6669397-.7687627.0655358-.35868-.069345-.7246003-.3519962-.9549362l-14.655-12.705v-4.429l.335.3c.2679492.2375816.6422927.3141669.9820191.2009069.3397263-.11326.5932228-.3991584.665-.75.0717771-.3508416-.0490699-.7133253-.3170191-.9509069l-8.336-7.41c-.7578571-.673898-1.9001429-.673898-2.658 0l-8.336 7.41c-.2679492.2375816-.3887962.6000653-.3170191.9509069.0717772.3508416.3252737.63674.665.75.3397264.11326.7140699.0366747.9820191-.2009069l.334-.3v4.43c-.2909399.2264513-.4336785.5946179-.3714196.9580048.0622589.3633868.3194149.6630397.6691443.7797253.3497294.1166857.7352937.0314735 1.0032753-.2217301.4434799-.3793238.6991625-.9334246.7-1.517v-6.206l6-5.334 6 5.334v6.206c.0014203.5828763.2570495 1.136131.7 1.515l11.3 9.801v10.144h-6v-2h3c.5522847 0 1-.4477153 1-1s-.4477153-1-1-1h-3v-2h3c.5522847 0 1-.4477153 1-1s-.4477153-1-1-1h-3v-4c-.0003764-.5320047-.2126981-1.0419367-.59-1.417-.006-.006-.008-.015-.015-.022s-.042-.024-.06-.04c-.364754-.3335954-.8407039-.5193407-1.335-.521h-20c-.5103534.0005904-1.0009121.1975301-1.37.55 0 .005-.01.006-.015.01v.006c-.3917578.3742836-.6138713.8921872-.615 1.434v4h-3c-.5522847 0-1 .4477153-1 1s.4477153 1 1 1h3v2h-3c-.5522847 0-1 .4477153-1 1s.4477153 1 1 1h3v2h-6v-10.144l1.655-1.435 3.605-3.121c.2757233-.2323853.4049828-.5952161.338293-.9495871-.0666897-.3543709-.3189992-.6453935-.6603347-.7616533-.3413356-.1162597-.7188277-.0397493-.9879583.2002404l-3.6 3.125-5 4.335c-.2826512.2303359-.417532.5962562-.35199621.9549362.06553579.3586801.32109924.6532609.66693975.7687627.34584051.1155017.72713441.0336149.99505646-.2136989l1.34-1.169v8.41h-8c-.55228475 0-1 .4477153-1 1s.44771525 1 1 1zm18-12.625 3.6 3.625h-3.6zm15 5.625h3.586l-3.586 3.586zm5-2h-3.6l3.6-3.618zm-5-1.424v-3.576h3.554zm-2 8.424h-6v-6-6h6zm-8-8.427-3.546-3.573h3.546zm0 3.427v3.586l-3.586-3.586zm11.414 5 3.586-3.586v3.586zm-16.414-3.586 3.586 3.586h-3.586z"/><path id="Shape" d="m55.376 18.429c2.9861026-1.8811924 4.7471367-5.2078863 4.624-8.735-.2250771-5.25426702-4.4327796-9.46283823-9.687-9.689-2.7051035-.08471125-5.3290265.93065114-7.2724898 2.81418805-1.9434634 1.8835369-3.040483 4.47438238-3.0405102 7.18081195-.0089379 3.4112625 1.730631 6.5892122 4.609 8.42.8423814.5068284 1.3671255 1.4091921 1.391 2.392v.466c-.6167513.3544126-.997855 1.0106732-1 1.722v2c.002145.7113268.3832487 1.3675874 1 1.722v.278c0 2.209139 1.790861 4 4 4s4-1.790861 4-4v-.278c.6167513-.3544126.997855-1.0106732 1-1.722v-2c-.002145-.7113268-.3832487-1.3675874-1-1.722v-.468c.0199033-.9771468.5392946-1.87589 1.376-2.381zm-9.689-1.694c-3.0326952-1.9401062-4.3958717-5.6669791-3.3306844-9.10596566 1.0651873-3.43898653 4.2963093-5.74282741 7.8946844-5.62903434 4.2049567.17867643 7.5724936 3.54795165 7.749 7.753.0984938 2.8221553-1.3106516 5.4839167-3.7 6.989-1.4144404.8709968-2.2828681 2.4069812-2.3 4.068v.19h-4v-.188c-.0217545-1.6654781-.8945501-3.2039076-2.313-4.077zm7.313 8.265h-6v-2h6zm-3 4c-1.1045695 0-2-.8954305-2-2h4c0 1.1045695-.8954305 2-2 2z"/><path id="Shape" d="m50 6c.5522847 0 1-.44771525 1-1s-.4477153-1-1-1c-3.3123376.00330738-5.9966926 2.68766243-6 6 0 .5522847.4477153 1 1 1s1-.4477153 1-1c0-2.209139 1.790861-4 4-4z"/></g></g></g></svg>