<?xml version="1.0" standalone="no"?>
<!DOCTYPE svg PUBLIC "-//W3C//DTD SVG 20010904//EN"
 "http://www.w3.org/TR/2001/REC-SVG-20010904/DTD/svg10.dtd">
<svg version="1.0" xmlns="http://www.w3.org/2000/svg"
 width="500.000000pt" height="500.000000pt" viewBox="0 0 500.000000 500.000000"
 preserveAspectRatio="xMidYMid meet">

<g transform="translate(0.000000,500.000000) scale(0.100000,-0.100000)"
fill="#000000" stroke="none">
<path d="M2186 2498 c-14 -73 -26 -136 -26 -140 0 -5 13 -8 29 -8 31 0 33 4
46 68 l7 32 63 0 c48 0 64 4 69 16 12 30 6 34 -52 34 -32 0 -61 2 -64 5 -3 3
-2 20 1 38 l7 32 74 5 c68 5 75 7 78 28 3 22 2 22 -101 22 l-104 0 -27 -132z"/>
<path d="M2472 2550 c-65 -40 -79 -137 -25 -180 29 -22 92 -27 111 -8 9 9 12
9 12 0 0 -7 13 -12 28 -12 28 0 29 1 47 100 10 55 19 103 19 107 2 16 -54 15
-60 -1 -5 -14 -8 -14 -27 -1 -29 21 -66 19 -105 -5z m98 -50 c23 -23 24 -30 8
-64 -13 -29 -39 -40 -74 -32 -20 5 -24 12 -24 46 0 29 6 43 22 54 30 21 44 20
68 -4z"/>
<path d="M2725 2558 c-2 -7 -13 -57 -23 -110 l-19 -98 32 0 c31 0 32 1 43 61
13 69 34 99 69 99 12 0 23 3 23 8 0 4 3 17 6 30 7 26 -8 29 -48 8 -24 -13 -28
-13 -28 0 0 18 -49 19 -55 2z"/>
<path d="M2895 2548 c-14 -61 -35 -171 -35 -184 0 -9 10 -14 29 -14 27 0 29 3
41 63 17 87 25 99 63 95 28 -3 32 -6 31 -33 0 -16 -4 -51 -8 -77 l-8 -48 30 0
c28 0 30 3 42 63 17 87 25 99 63 95 28 -3 32 -6 31 -33 0 -16 -4 -51 -8 -77
l-8 -48 30 0 c34 0 38 10 48 108 4 36 2 67 -5 80 -15 29 -71 38 -111 19 -26
-14 -34 -14 -58 -1 -33 17 -56 18 -85 3 -16 -9 -22 -9 -25 0 -2 6 -14 11 -28
11 -16 0 -25 -7 -29 -22z"/>
</g>
</svg>
